<svg xmlns="http://www.w3.org/2000/svg" width="250.93" height="61" viewBox="0 0 250.93 61">
  <g id="Group_14" data-name="Group 14" transform="translate(1837.846 280)">
    <text id="Desapeg" transform="translate(-1837.846 -233)" fill="#5dbdea" font-size="50" font-family="Raleway-SemiBold, Raleway" font-weight="600"><tspan x="0" y="0">Des</tspan><tspan y="0" fill="#fff">apeg</tspan></text>
    <g id="Group_13" data-name="Group 13" transform="translate(114.154 -70)">
      <g id="Group_22" data-name="Group 22" transform="translate(31 1)">
        <rect id="Rectangle_9" data-name="Rectangle 9" width="6.849" height="20.119" rx="3.424" transform="translate(-1751.139 -164.226) rotate(-45)" fill="#5488a5"/>
        <path id="Subtraction_6" data-name="Subtraction 6" d="M-128.33,99.538a14.651,14.651,0,0,1-9.889-3.84,14.653,14.653,0,0,1-4.737-9.578,14.6,14.6,0,0,1,3.383-10.728A14.6,14.6,0,0,1-129.6,70.2c.431-.038.867-.057,1.3-.057a14.651,14.651,0,0,1,9.889,3.84,14.652,14.652,0,0,1,4.737,9.578,14.6,14.6,0,0,1-3.382,10.729,14.6,14.6,0,0,1-9.978,5.195C-127.464,99.519-127.9,99.538-128.33,99.538Zm-.081-24.453c-.282,0-.569.013-.852.037a9.58,9.58,0,0,0-6.548,3.408,9.584,9.584,0,0,0-2.221,7.041,9.617,9.617,0,0,0,3.109,6.285,9.615,9.615,0,0,0,6.489,2.52c.289,0,.576-.012.853-.037a9.656,9.656,0,0,0,8.768-10.45,9.614,9.614,0,0,0-3.108-6.285A9.613,9.613,0,0,0-128.411,75.085Z" transform="translate(-1628 -261)" fill="#5dbdea"/>
      </g>
    </g>
  </g>
</svg>
